Coordinates
version=1
nRows=14
nColumns=40
inDegrees=yes

Units are S.I. units (second, meters, Newtons, ...)
If the header above contains a line with 'inDegrees', this indicates whether rotational values are in degrees (yes) or radians (no).

endheader
time	pelvis_tilt	pelvis_list	pelvis_rotation	pelvis_tx	pelvis_ty	pelvis_tz	hip_flexion_r	hip_adduction_r	hip_rotation_r	knee_angle_r	knee_angle_r_beta	ankle_angle_r	subtalar_angle_r	mtp_angle_r	hip_flexion_l	hip_adduction_l	hip_rotation_l	knee_angle_l	knee_angle_l_beta	ankle_angle_l	subtalar_angle_l	mtp_angle_l	lumbar_extension	lumbar_bending	lumbar_rotation	arm_flex_r	arm_add_r	arm_rot_r	elbow_flex_r	pro_sup_r	wrist_flex_r	wrist_dev_r	arm_flex_l	arm_add_l	arm_rot_l	elbow_flex_l	pro_sup_l	wrist_flex_l	wrist_dev_l
      3.50000000	     -1.82985836	     -1.51469154	     -1.34789266	     -0.30945498	      0.94072181	     -0.99642443	     32.36590968	     -7.57948362	     -3.77541388	     67.63471609	      1.18044848	     -3.93541735	      0.00000000	      0.00000000	     10.32344787	      1.24496040	     -6.84214503	     16.47793637	      0.28759424	     -1.47345755	      0.00000000	      0.00000000	    -12.65216037	      1.68522697	      3.55414852	     61.69752264	    -19.97855588	     19.35499153	     40.08176313	     86.27957087	      0.00000000	      0.00000000	     65.21169627	    -29.41997627	     24.11675150	     44.96337531	     85.96259071	      0.00000000	      0.00000000
      3.50500000	     -1.87634181	     -1.55808513	     -1.29612815	     -0.30961107	      0.94064190	     -0.99678117	     32.59235692	     -7.50785335	     -3.74185338	     68.69418081	      1.19893963	     -4.03918570	      0.00000000	      0.00000000	     10.44874265	      1.18857879	     -6.89521116	     16.62768342	      0.29020782	     -1.52520889	      0.00000000	      0.00000000	    -12.63111796	      1.73384037	      3.48486487	     62.14150615	    -19.83111817	     19.36815435	     39.77830823	     86.35981030	      0.00000000	      0.00000000	     65.61124452	    -29.51564917	     24.15460887	     44.99777932	     85.88483575	      0.00000000	      0.00000000
      3.51000000	     -1.84127719	     -1.71563717	     -1.23242885	     -0.30975772	      0.94070542	     -0.99698344	     32.67607782	     -7.32186993	     -3.82309131	     69.71043344	      1.21667659	     -4.20362081	      0.00000000	      0.00000000	     10.49881115	      1.02171467	     -6.81354891	     16.75144898	      0.29236794	     -1.54876120	      0.00000000	      0.00000000	    -12.72946336	      1.88825233	      3.49839931	     62.40340911	    -19.99951768	     19.69470318	     39.97978463	     86.38131116	      0.00000000	      0.00000000	     66.08136924	    -29.59527634	     24.39323352	     45.07864440	     85.79787969	      0.00000000	      0.00000000
      3.51500000	     -1.92394956	     -1.79727466	     -1.18222665	     -0.30997728	      0.94056272	     -0.99730487	     32.91907217	     -7.19588473	     -3.79821447	     70.72321791	      1.23435301	     -4.47165480	      0.00000000	      0.00000000	     10.68919531	      0.92276055	     -6.89312450	     16.93957654	      0.29565138	     -1.45063679	      0.00000000	      0.00000000	    -12.67688166	      1.96685335	      3.51155836	     62.73232258	    -20.02180438	     19.70867469	     39.87087625	     86.40206419	      0.00000000	      0.00000000	     66.52845172	    -29.54928104	     24.42029727	     44.94773499	     85.80853209	      0.00000000	      0.00000000
      3.52000000	     -2.04515815	     -1.74220468	     -1.16162894	     -0.31039000	      0.94025902	     -0.99770003	     33.26170472	     -7.21716602	     -3.71646167	     71.79081355	      1.25298607	     -4.72997313	      0.00000000	      0.00000000	     10.95239517	      0.98369318	     -6.92014812	     17.14777885	      0.29928520	     -1.45788632	      0.00000000	      0.00000000	    -12.60619358	      1.90299822	      3.48707647	     63.12807277	    -20.02179558	     19.88517844	     39.74948932	     86.42463961	      0.00000000	      0.00000000	     67.00196535	    -29.70441331	     24.76351071	     45.00885728	     85.74950168	      0.00000000	      0.00000000
      3.52500000	     -2.07868023	     -1.79622055	     -1.12414712	     -0.31065535	      0.94018088	     -0.99799756	     33.43783779	     -7.10992570	     -3.65633971	     72.79059213	      1.27043550	     -5.19925189	      0.00000000	      0.00000000	     11.07528421	      0.92989513	     -6.86595517	     17.28785422	      0.30172998	     -1.41128123	      0.00000000	      0.00000000	    -12.62704817	      1.94394985	      3.51820970	     63.46780395	    -20.02264221	     19.83489607	     39.64758911	     86.41752273	      0.00000000	      0.00000000	     67.47675073	    -29.70904178	     24.94066988	     44.98035582	     85.80060380	      0.00000000	      0.00000000
      3.53000000	     -2.13391435	     -1.82395758	     -1.05564355	     -0.31090742	      0.94007415	     -0.99837362	     33.62656004	     -7.08502280	     -3.69378452	     73.76838338	      1.28750117	     -5.68860270	      0.00000000	      0.00000000	     11.22693320	      0.90046957	     -6.97319836	     17.39673790	      0.30363036	     -1.46226261	      0.00000000	      0.00000000	    -12.61223654	      1.96869618	      3.47368629	     63.83001122	    -19.97133867	     19.86024191	     39.44727992	     86.37662530	      0.00000000	      0.00000000	     67.89672397	    -29.77709677	     25.14820228	     44.98211862	     85.86365426	      0.00000000	      0.00000000
      3.53500000	     -2.20729582	     -1.88050147	     -0.99104088	     -0.31120132	      0.93989920	     -0.99870260	     33.81692283	     -7.01429044	     -3.72923842	     74.72278617	      1.30415864	     -6.10336275	      0.00000000	      0.00000000	     11.45219959	      0.82945971	     -7.01750083	     17.66081729	      0.30823941	     -1.36209982	      0.00000000	      0.00000000	    -12.59678245	      2.01369716	      3.45414664	     64.16062126	    -20.02673055	     19.99326821	     39.40732422	     86.35559265	      0.00000000	      0.00000000	     68.37916573	    -29.82926299	     25.43763118	     44.95266311	     85.85430798	      0.00000000	      0.00000000
      3.54000000	     -2.28347731	     -1.89628523	     -0.97341188	     -0.31147103	      0.93975280	     -0.99897488	     34.01474890	     -6.94286694	     -3.68212361	     75.68843076	      1.32101232	     -6.53064606	      0.00000000	      0.00000000	     11.61442087	      0.81370162	     -7.06017554	     17.76097989	      0.30998758	     -1.41501198	      0.00000000	      0.00000000	    -12.58585757	      2.01730401	      3.43197508	     64.52065715	    -19.99378144	     20.07677373	     39.29409011	     86.31285790	      0.00000000	      0.00000000	     68.82571143	    -29.88455050	     25.62532842	     44.93475161	     85.87367980	      0.00000000	      0.00000000
      3.54500000	     -2.32145250	     -1.92529071	     -0.90811559	     -0.31171565	      0.93958054	     -0.99927885	     34.13967932	     -6.91612543	     -3.74149415	     76.61595148	      1.33720061	     -7.00510029	      0.00000000	      0.00000000	     11.78264450	      0.78802974	     -7.06211197	     17.97805391	      0.31377623	     -1.25846115	      0.00000000	      0.00000000	    -12.59141393	      2.03129828	      3.44067524	     64.85956116	    -20.02744375	     20.12423614	     39.14723599	     86.32155369	      0.00000000	      0.00000000	     69.27311434	    -29.91002672	     25.87605696	     44.87647823	     85.82756819	      0.00000000	      0.00000000
      3.55000000	     -2.38076457	     -1.99689481	     -0.86058424	     -0.31203498	      0.93937392	     -0.99950475	     34.28269118	     -6.80215987	     -3.76713424	     77.53600083	      1.35325850	     -7.59055931	      0.00000000	      0.00000000	     11.99264249	      0.69798430	     -7.10627208	     18.22799929	      0.31813860	     -1.26719283	      0.00000000	      0.00000000	    -12.59878304	      2.09015627	      3.43745635	     65.21869446	    -20.05002011	     20.24853657	     39.03733064	     86.33447377	      0.00000000	      0.00000000	     69.70869367	    -29.98693117	     26.14585030	     44.89564220	     85.81494066	      0.00000000	      0.00000000
      3.55500000	     -2.46870091	     -2.01101321	     -0.78393886	     -0.31235694	      0.93908353	     -0.99986090	     34.45093066	     -6.78688529	     -3.80782632	     78.46923860	      1.36954658	     -8.06448629	      0.00000000	      0.00000000	     12.21233326	      0.69866616	     -7.07401486	     18.40104608	      0.32115884	     -1.15839003	      0.00000000	      0.00000000	    -12.56531576	      2.08678027	      3.42549241	     65.57564233	    -20.09678650	     20.33172894	     38.85144269	     86.31895572	      0.00000000	      0.00000000	     70.19875992	    -29.92607035	     26.34262104	     44.75473166	     85.85285220	      0.00000000	      0.00000000
      3.56000000	     -2.51468076	     -2.06933445	     -0.69576140	     -0.31269128	      0.93889914	     -1.00018484	     34.53669396	     -6.73246765	     -3.90852471	     79.32491882	      1.38448101	     -8.64826871	      0.00000000	      0.00000000	     12.38743929	      0.65573134	     -7.00830391	     18.58620608	      0.32439049	     -1.06827524	      0.00000000	      0.00000000	    -12.59697026	      2.13472782	      3.38010501	     65.91950956	    -20.15512344	     20.50816068	     38.80972920	     86.34508661	      0.00000000	      0.00000000	     70.65946889	    -30.04090672	     26.80329694	     44.82847916	     85.74011803	      0.00000000	      0.00000000
      3.56500000	     -2.62829579	     -2.11115878	     -0.56543638	     -0.31309441	      0.93856261	     -1.00057787	     34.69796285	     -6.71998709	     -4.00839716	     80.20002648	      1.39975452	     -9.19229761	      0.00000000	      0.00000000	     12.67508589	      0.62644909	     -6.87099310	     18.83753962	      0.32877709	     -1.01926080	      0.00000000	      0.00000000	    -12.54803185	      2.19411982	      3.28678264	     66.34603208	    -20.15259829	     20.71768823	     38.58355410	     86.32459736	      0.00000000	      0.00000000	     71.12432529	    -30.12661263	     27.20689368	     44.79945353	     85.73450358	      0.00000000	      0.00000000
